<?xml version="1.0" encoding="utf-8"?>
<!-- Generator: Adobe Illustrator 24.0.0, SVG Export Plug-In . SVG Version: 6.00 Build 0)  -->
<svg version="1.1" id="Layer_1" xmlns="http://www.w3.org/2000/svg" xmlns:xlink="http://www.w3.org/1999/xlink" x="0px" y="0px"
	 viewBox="0 0 316.3 284.9" style="enable-background:new 0 0 316.3 284.9;" xml:space="preserve">
<style type="text/css">
	.st0{fill:#00A676;}
	.st1{fill:#FFFFFF;}
	.st2{fill:#F7F9F9;}
</style>
<g>
	<g>
		<g>
			<polygon class="st0" points="228.5,248.6 158.1,275.3 87.8,248.6 87.8,142.5 87.8,36.3 158.1,9.6 228.5,36.3 228.5,142.5 			"/>
		</g>
		<g>
			<path class="st0" d="M158.1,284.9l-79.4-30.1V30.1L158.1,0l79.4,30.1v224.7L158.1,284.9z M96.8,242.4l61.4,23.3l61.4-23.3V42.5
				l-61.4-23.3L96.8,42.5V242.4z"/>
		</g>
		<g>
			<path class="st1" d="M158.1,281.7l-76.4-29V32.2l76.4-29l76.4,29v220.6L158.1,281.7z M93.8,244.5l64.4,24.4l64.4-24.4v-204
				L158.1,16L93.8,40.4V244.5z"/>
		</g>
		<g>
			<path class="st0" d="M158.1,278l-72.9-27.6V34.6l72.9-27.6L231,34.6v215.8L158.1,278z M90.3,246.9l67.9,25.7l67.9-25.7V38
				l-67.9-25.7L90.3,38V246.9z"/>
		</g>
	</g>
	<g>
		<g>
			<rect x="7.1" y="72.7" class="st0" width="302.1" height="78.3"/>
		</g>
		<g>
			<path class="st0" d="M316.3,158.1H0V65.6h316.3V158.1z M14.2,143.9h288V79.8h-288V143.9z"/>
		</g>
		<g>
			<path class="st1" d="M310.6,152.4H5.7V71.3h305V152.4z M8.5,149.6h299.3V74.1H8.5V149.6z"/>
		</g>
	</g>
	<g>
		<g>
			<path class="st2" d="M41.6,89.1h1.4c0.3,0,0.6,0.1,0.7,0.4c0.2,0.2,0.3,0.9,0.3,1.9l0.6,8.5c0,0.2,0,0.3,0,0.5
				c0,0.6-0.1,1-0.3,1.3s-0.6,0.4-1.3,0.4c-0.8,0-1.3-0.2-1.6-0.6c-0.3-0.4-0.6-1.4-0.9-2.9c-0.7-3.8-1.7-5.7-3.1-5.7
				c-1.1,0-1.7,1.4-1.7,4.1v29.7c0,2,0.6,3,1.7,3c1.5,0,2.3-1.6,2.5-4.9c0.1-0.9,0.2-1.6,0.6-2s1-0.6,2-0.6c0.7,0,1.3,0.1,1.5,0.4
				c0.3,0.3,0.4,0.8,0.4,1.6c0,2.5-0.8,4.6-2.3,6.3c-1.5,1.7-3.4,2.5-5.6,2.5c-2.2,0-4.1-0.7-5.7-2.1s-3.1-3.8-4.3-7.2
				c-1.2-3.4-1.8-7.8-1.8-13.1c0-5,0.5-9,1.5-12c1-3,2.3-5.3,3.9-6.9c1.6-1.6,3.4-2.5,5.5-2.5c1.3,0,2.4,0.3,3.3,1
				c0.4,0.2,0.6,0.4,0.8,0.4c0.2,0,0.5-0.2,0.9-0.7C41,89.4,41.3,89.1,41.6,89.1z"/>
		</g>
		<g>
			<path class="st2" d="M58.1,96c3.3,0,6.1,1.5,8.3,4.4c2.2,3,3.3,7.4,3.3,13.2c0,6.3-1.1,11.1-3.4,14.3c-2.3,3.2-5.1,4.8-8.4,4.8
				c-2.3,0-4.3-0.7-6-2.2s-3-3.4-3.9-5.9c-0.9-2.5-1.4-5.8-1.4-10.1c0-6.1,1.1-10.7,3.2-13.8C51.8,97.6,54.6,96,58.1,96z M60,102.6
				c0-2.2-0.6-3.3-1.9-3.3c-1.4,0-2.1,1.3-2.1,4v21.9c0,2.7,0.6,4,1.9,4c1.4,0,2.1-1.3,2.1-4V102.6z"/>
		</g>
		<g>
			<path class="st2" d="M73.9,96.4v-1.7c0-1.6,0.6-3,1.7-4.1c1.1-1.1,2.8-1.7,4.9-1.7c2.9,0,4.4,1,4.4,3c0,1-0.3,1.7-0.8,2.1
				c-0.5,0.4-1.1,0.6-1.6,0.6c-0.6,0-1.3-0.3-2.1-0.8c-0.8-0.5-1.4-0.7-1.7-0.7c-0.4,0-0.7,0.2-1,0.5c-0.3,0.3-0.4,0.7-0.4,1
				c0,0.5,0.2,0.9,0.6,1.3c0.4,0.4,0.8,0.5,1.1,0.5h4.5c0.6,0,0.9,0.3,0.9,0.9v1.6c0,0.5-0.2,0.8-0.6,1.1c-0.7,0.4-1.1,1.2-1.1,2.3
				V128c0,0.4,0.3,0.7,0.9,1c0.3,0.2,0.4,0.3,0.5,0.5c0.1,0.2,0.1,0.5,0.1,1.1c0,0.8,0,1.3-0.1,1.5c0,0.2-0.3,0.3-0.6,0.3H73.1
				c-0.5,0-0.7-0.2-0.7-0.7v-1.8c0-0.5,0.2-0.8,0.6-1c0.6-0.2,0.9-0.9,0.9-1.9v-25.4c0-0.7-0.3-1.2-0.9-1.7
				c-0.4-0.3-0.6-0.7-0.6-1.2v-1.6c0-0.6,0.2-0.9,0.7-0.9H73.9z"/>
		</g>
		<g>
			<path class="st2" d="M88.6,96.4v-1.7c0-1.6,0.6-3,1.7-4.1c1.1-1.1,2.8-1.7,4.9-1.7c2.9,0,4.4,1,4.4,3c0,1-0.3,1.7-0.8,2.1
				c-0.5,0.4-1.1,0.6-1.6,0.6c-0.6,0-1.3-0.3-2.1-0.8c-0.8-0.5-1.4-0.7-1.7-0.7c-0.4,0-0.7,0.2-1,0.5c-0.3,0.3-0.4,0.7-0.4,1
				c0,0.5,0.2,0.9,0.6,1.3c0.4,0.4,0.8,0.5,1.1,0.5h4.5c0.6,0,0.9,0.3,0.9,0.9v1.6c0,0.5-0.2,0.8-0.6,1.1c-0.7,0.4-1.1,1.2-1.1,2.3
				V128c0,0.4,0.3,0.7,0.9,1c0.3,0.2,0.4,0.3,0.5,0.5c0.1,0.2,0.1,0.5,0.1,1.1c0,0.8,0,1.3-0.1,1.5c0,0.2-0.3,0.3-0.6,0.3H87.7
				c-0.5,0-0.7-0.2-0.7-0.7v-1.8c0-0.5,0.2-0.8,0.6-1c0.6-0.2,0.9-0.9,0.9-1.9v-25.4c0-0.7-0.3-1.2-0.9-1.7
				c-0.4-0.3-0.6-0.7-0.6-1.2v-1.6c0-0.6,0.2-0.9,0.7-0.9H88.6z"/>
		</g>
		<g>
			<path class="st2" d="M111.4,113.9v10.8c0,1.4,0.3,2.5,0.8,3.3s1.3,1.2,2.1,1.2c1.3,0,2.4-0.6,3.2-1.7c0.8-1.1,1.2-2.7,1.3-4.7
				c0-1.1,0.1-1.7,0.3-1.9s0.8-0.3,1.9-0.3c0.9,0,1.6,0.1,1.8,0.3c0.3,0.2,0.4,0.7,0.4,1.5c0,2.7-0.9,5.1-2.6,7.2s-4.1,3.2-7,3.2
				c-3.3,0-6.1-1.5-8.5-4.5c-2.3-3-3.5-7.6-3.5-13.6s1.1-10.7,3.2-13.9c2.1-3.2,5-4.8,8.4-4.8c3,0,5.4,1.3,7.2,4
				c1.8,2.7,2.7,6.5,2.7,11.4v2.5H111.4z M114.9,110.6v-8.7c0-1.7-0.6-2.5-1.8-2.5c-1.2,0-1.8,0.8-1.8,2.5v8.7H114.9z"/>
		</g>
		<g>
			<path class="st2" d="M135.6,113.9v10.8c0,1.4,0.3,2.5,0.8,3.3s1.3,1.2,2.1,1.2c1.3,0,2.4-0.6,3.2-1.7c0.8-1.1,1.2-2.7,1.3-4.7
				c0-1.1,0.1-1.7,0.3-1.9s0.8-0.3,1.9-0.3c0.9,0,1.6,0.1,1.8,0.3c0.3,0.2,0.4,0.7,0.4,1.5c0,2.7-0.9,5.1-2.6,7.2s-4.1,3.2-7,3.2
				c-3.3,0-6.1-1.5-8.5-4.5c-2.3-3-3.5-7.6-3.5-13.6s1.1-10.7,3.2-13.9c2.1-3.2,5-4.8,8.4-4.8c3,0,5.4,1.3,7.2,4
				c1.8,2.7,2.7,6.5,2.7,11.4v2.5H135.6z M139.1,110.6v-8.7c0-1.7-0.6-2.5-1.8-2.5c-1.2,0-1.8,0.8-1.8,2.5v8.7H139.1z"/>
		</g>
		<g>
			<path class="st2" d="M181.4,108.1c3.2,1.1,5.4,2.5,6.6,4.2c1.2,1.7,1.8,4,1.8,6.9c0,4.4-1.1,7.8-3.3,9.9
				c-2.2,2.2-5.7,3.3-10.4,3.3h-12.9c-0.5,0-0.8-0.3-0.8-0.8V130c0-0.4,0.2-0.8,0.7-1c1-0.5,1.5-1.2,1.5-2.1V95.1
				c0-0.4-0.1-0.7-0.2-0.9s-0.6-0.4-1.3-0.7c-0.4-0.2-0.6-0.3-0.6-0.5c-0.1-0.2-0.1-0.7-0.1-1.4c0-0.7,0.1-1.1,0.3-1.3
				s0.5-0.3,1-0.3h14.4c3.5,0,6.2,0.9,8,2.7s2.8,4,2.8,6.8c0,2.3-0.7,4.2-2.2,5.7C185.3,106.6,183.5,107.6,181.4,108.1z M174.4,92.8
				v13.8h1.4c0.9,0,1.6-0.3,2.1-0.8s0.8-1.4,0.9-2.5c0.1-1.2,0.1-2.7,0.1-4.5c0-2.5-0.2-4.2-0.7-4.9c-0.5-0.7-1.3-1.1-2.3-1.1H174.4
				z M174.4,109.7v19.7c1.6,0,2.7-0.2,3.3-0.7c0.6-0.4,0.9-1.3,1-2.6c0.1-1.3,0.1-3.5,0.1-6.6c0-0.6,0-2.1-0.1-4.3
				c-0.1-2.2-0.2-3.6-0.3-4c-0.2-0.5-0.4-0.8-0.8-1.1s-1-0.4-1.8-0.4H174.4z"/>
		</g>
		<g>
			<path class="st2" d="M193.6,100.4c-0.2-0.1-0.4-0.2-0.5-0.2c-0.4-0.2-0.7-0.4-0.8-0.6c-0.1-0.2-0.2-0.6-0.2-1.1
				c0-0.3,0-0.6,0-0.8c0-0.5,0.1-0.9,0.2-1c0.1-0.2,0.5-0.3,1-0.3h8.2c0.4,0,0.7,0.1,0.7,0.2s0.1,0.4,0.1,0.9v26
				c0,2.3,0.6,3.4,1.9,3.4c0.9,0,1.7-0.4,2.2-1.2v-24.4c0-0.6-0.3-1.1-0.9-1.5c-0.3-0.2-0.5-0.4-0.5-0.6c-0.1-0.2-0.1-0.9-0.1-2
				c0-0.5,0.3-0.8,0.9-0.8h8.6c0.4,0,0.6,0.1,0.7,0.2s0.1,0.4,0.1,0.8v30.2c0,0.6,0.2,1,0.7,1.2c0.6,0.3,0.9,0.8,0.9,1.6
				c0,1.1,0,1.7-0.1,1.8c-0.1,0.1-0.4,0.2-0.8,0.2h-8c-0.5,0-0.9-0.1-1.1-0.3c-0.2-0.2-0.3-0.6-0.3-1.2v-0.7c0-0.7,0-1.1,0-1.2
				c-2.8,2.5-5.2,3.7-7.1,3.7c-1.7,0-3-0.6-4.1-1.7c-1.1-1.1-1.6-3.2-1.6-6.4V100.4z"/>
		</g>
		<g>
			<path class="st2" d="M232.6,98.8v-4.6c0-0.8-0.3-1.2-0.9-1.2c-0.3,0-0.6-0.1-0.7-0.3c-0.1-0.1-0.2-0.5-0.2-0.9v-1
				c0-0.4,0.1-0.7,0.2-0.8c0.1-0.1,0.4-0.1,0.8-0.1h8.4c0.5,0,0.8,0.1,0.9,0.2s0.2,0.5,0.2,1.1v36.7c0,0.8,0.4,1.3,1.2,1.6
				c0.4,0.1,0.6,0.4,0.6,0.8v1.3c0,0.6-0.3,0.9-0.8,0.9h-9.2c-0.3,0-0.5-0.1-0.5-0.2c-0.1-0.1-0.1-0.6-0.1-1.4c0-0.2,0-0.4,0-0.7
				c-1.9,1.8-3.7,2.7-5.4,2.7c-5.6,0-8.4-5.7-8.4-17.1c0-8.1,0.7-13.4,2.2-15.9c1.5-2.5,3.4-3.8,5.8-3.8
				C228.8,96,230.7,96.9,232.6,98.8z M232.6,101.8c-0.8-0.5-1.5-0.7-2-0.7c-0.6,0-1.1,0.3-1.4,0.8c-0.4,0.6-0.5,1.2-0.5,1.9v21.8
				c0,0.7,0.2,1.2,0.5,1.6c0.3,0.4,0.8,0.7,1.3,0.7c0.5,0,1-0.2,1.4-0.6c0.5-0.4,0.7-0.8,0.7-1.2V101.8z"/>
		</g>
		<g>
			<path class="st2" d="M259.1,98.8v-4.6c0-0.8-0.3-1.2-0.9-1.2c-0.3,0-0.6-0.1-0.7-0.3c-0.1-0.1-0.2-0.5-0.2-0.9v-1
				c0-0.4,0.1-0.7,0.2-0.8c0.1-0.1,0.4-0.1,0.8-0.1h8.4c0.5,0,0.8,0.1,0.9,0.2s0.2,0.5,0.2,1.1v36.7c0,0.8,0.4,1.3,1.2,1.6
				c0.4,0.1,0.6,0.4,0.6,0.8v1.3c0,0.6-0.3,0.9-0.8,0.9h-9.2c-0.3,0-0.5-0.1-0.5-0.2c-0.1-0.1-0.1-0.6-0.1-1.4c0-0.2,0-0.4,0-0.7
				c-1.9,1.8-3.7,2.7-5.4,2.7c-5.6,0-8.4-5.7-8.4-17.1c0-8.1,0.7-13.4,2.2-15.9c1.5-2.5,3.4-3.8,5.8-3.8
				C255.2,96,257.1,96.9,259.1,98.8z M259.1,101.8c-0.8-0.5-1.5-0.7-2-0.7c-0.6,0-1.1,0.3-1.4,0.8c-0.4,0.6-0.5,1.2-0.5,1.9v21.8
				c0,0.7,0.2,1.2,0.5,1.6c0.3,0.4,0.8,0.7,1.3,0.7c0.5,0,1-0.2,1.4-0.6c0.5-0.4,0.7-0.8,0.7-1.2V101.8z"/>
		</g>
		<g>
			<path class="st2" d="M284.3,116.6l2.6-13.9c0.1-0.2,0.1-0.4,0.1-0.5c0.1-0.5,0.2-0.9,0.2-1c0-0.5-0.3-0.9-0.9-1.4
				c-0.3-0.2-0.5-0.5-0.5-0.8c-0.1-0.3-0.1-0.9-0.1-1.8c0-0.6,0.2-0.8,0.7-0.8h4.5c0.5,0,0.9,0.1,1,0.3s0.3,0.8,0.3,1.7
				c0,0.5,0,0.8-0.1,0.9c-0.1,0.1-0.3,0.3-0.6,0.5c-0.5,0.3-0.9,1.1-1.1,2.3l-4.4,23.2c-0.8,4-1.3,6.6-1.7,7.8
				c-0.4,1.2-1,2.2-1.8,3.1c-0.8,0.9-1.7,1.6-2.8,2s-2.3,0.7-3.8,0.7c-1.5,0-2.7-0.4-3.6-1.1c-0.8-0.7-1.3-1.7-1.3-2.9
				c0-0.9,0.3-1.5,0.8-2.1s1.3-0.8,2.1-0.8c1.2,0,2.1,0.7,2.6,2.2c0.2,0.7,0.6,1.1,1.1,1.1c0.9,0,1.3-0.5,1.3-1.4
				c0-0.3-0.2-1.3-0.5-3l-5.6-27.3c-0.3-1.3-0.5-2.2-0.7-2.7c-0.2-0.5-0.4-0.8-0.8-1c-0.3-0.2-0.5-0.5-0.5-1v-1.5
				c0-0.5,0.1-0.8,0.2-0.9s0.4-0.2,0.8-0.2h9.3c0.5,0,0.8,0.1,1,0.2c0.2,0.1,0.2,0.4,0.2,0.8c0,0.9,0,1.4-0.1,1.7
				c-0.1,0.3-0.3,0.5-0.6,0.6c-0.5,0.2-0.8,0.7-0.8,1.3c0,0.4,0.1,0.9,0.2,1.5L284.3,116.6z"/>
		</g>
	</g>
	<g>
		<g>
			<path class="st2" d="M203.7,174.8H193c0-0.9,0-1.7,0-2.6c0-0.8-0.7-1.5-1.5-1.5h-71.4c-0.8,0-1.5,0.7-1.5,1.5
				c0,15.4,0.4,36.2,11.4,48.6c1.9,2.1,4.6,3.3,7.4,3.3h36.8c2.8,0,5.5-1.2,7.4-3.3c2.7-3,4.7-6.5,6.3-10.3c0.1,0,0.3,0,0.4,0
				c12.8,0,23.3-10.4,23.3-23.3v-4.6C211.6,178.4,208,174.8,203.7,174.8z M190.2,203.3c1.8-6.9,2.4-14.4,2.6-21.4h10.8
				c0.4,0,0.8,0.3,0.8,0.8v4.6h0C204.5,195.5,198.2,202.3,190.2,203.3z"/>
		</g>
		<g>
			<path class="st2" d="M196.1,227h-80.6c-2,0-3.5,1.6-3.5,3.5s1.6,3.5,3.5,3.5h80.6c2,0,3.5-1.6,3.5-3.5
				C199.7,228.6,198.1,227,196.1,227z"/>
		</g>
	</g>
</g>
</svg>
